<svg id="Out_line" height="512" viewBox="0 0 512 512" width="512" xmlns="http://www.w3.org/2000/svg" data-name="Out line"><path d="m136 424a24 24 0 1 0 24 24 24.0275 24.0275 0 0 0 -24-24zm0 32a8 8 0 1 1 8-8 8.00917 8.00917 0 0 1 -8 8z"/><path d="m272 424a24 24 0 1 0 24 24 24.0275 24.0275 0 0 0 -24-24zm0 32a8 8 0 1 1 8-8 8.00917 8.00917 0 0 1 -8 8z"/><path d="m472 160h-80a7.99971 7.99971 0 0 0 -7.31934 4.77051l-22.60131 51.22949h-338.07935a7.99976 7.99976 0 0 0 -7.82812 9.64844l32 152a8 8 0 0 0 7.82812 6.35156h231.96167l-7.40259 16.7793a47.87725 47.87725 0 0 0 -50.10156 23.2207h-52.915a47.9537 47.9537 0 0 0 -83.085 0h-22.45752a24 24 0 0 0 0 48h22.45752a47.9537 47.9537 0 0 0 83.085 0h52.915a47.97963 47.97963 0 0 0 87.65161-37.30713l103.04224-226.69287h50.84863a24 24 0 0 0 0-48zm-400 296a8 8 0 1 1 0-16h16.67944a47.43733 47.43733 0 0 0 0 16zm64 24a32 32 0 1 1 32-32 32.03667 32.03667 0 0 1 -32 32zm47.32056-24a47.43733 47.43733 0 0 0 0-16h41.35888a47.43733 47.43733 0 0 0 0 16zm-120.82935-88-28.63183-136h321.16113l-60 136zm209.50879 112a32 32 0 1 1 32-32 32.03667 32.03667 0 0 1 -32 32zm136.7168-283.31055-100.13111 220.2876a48.33335 48.33335 0 0 0 -12.95068-10.73l101.57983-230.24705h18.78516v16a8.00224 8.00224 0 0 0 -7.2832 4.68945zm63.2832-4.68945h-40v-16h40a8 8 0 0 1 0 16z"/><path d="m74.34277 205.65723 11.31446-11.31446-50.34375-50.34277 108.68652-108.68652 170.34277 170.34375 11.31446-11.31446-176-176a8.003 8.003 0 0 0 -11.31446 0l-120 120a8.00122 8.00122 0 0 0 0 11.31446z"/><path d="m152 136a7.97772 7.97772 0 0 0 5.65723-2.34277l24-24a8.00122 8.00122 0 0 0 0-11.31446l-32-32a8.003 8.003 0 0 0 -11.31446 0l-24 24a8.00122 8.00122 0 0 0 0 11.31446l32 32a7.97772 7.97772 0 0 0 5.65723 2.34277zm-8-52.68652 20.68652 20.68652-12.68652 12.68652-20.68652-20.68652z"/><path d="m99.999 107.029h16.001v33.941h-16.001z" transform="matrix(.707 -.707 .707 .707 -56.049 112.686)"/><path d="m131.999 139.029h16.001v33.941h-16.001z" transform="matrix(.707 -.707 .707 .707 -69.304 144.686)"/><path d="m163.999 171.029h16.001v33.941h-16.001z" transform="matrix(.707 -.707 .707 .707 -82.558 176.686)"/><path d="m227.999 135.716h16.001v56.569h-16.001z" transform="matrix(.707 -.707 .707 .707 -46.843 214.912)"/><path d="m79.999 129.373h16.001v45.255h-16.001z" transform="matrix(.707 -.707 .707 .707 -81.706 106.745)"/><path d="m115.999 171.029h16.001v33.941h-16.001z" transform="matrix(.707 -.707 .707 .707 -96.617 142.745)"/><circle cx="272" cy="200" r="8"/><path d="m104 288a24 24 0 0 0 0-48h-24a24 24 0 0 0 0 48zm-32-24a8.00917 8.00917 0 0 1 8-8h24a8 8 0 0 1 0 16h-24a8.00917 8.00917 0 0 1 -8-8z"/><path d="m200 240h-24a24 24 0 0 0 0 48h24a24 24 0 0 0 0-48zm0 32h-24a8 8 0 0 1 0-16h24a8 8 0 0 1 0 16z"/><path d="m296 240h-24a24 24 0 0 0 0 48h24a24 24 0 0 0 0-48zm0 32h-24a8 8 0 0 1 0-16h24a8 8 0 0 1 0 16z"/><path d="m120 304h-24a24 24 0 0 0 0 48h24a24 24 0 0 0 0-48zm0 32h-24a8 8 0 0 1 0-16h24a8 8 0 0 1 0 16z"/><path d="m200 304h-24a24 24 0 0 0 0 48h24a24 24 0 0 0 0-48zm0 32h-24a8 8 0 0 1 0-16h24a8 8 0 0 1 0 16z"/><path d="m280 304h-24a24 24 0 0 0 0 48h24a24 24 0 0 0 0-48zm0 32h-24a8 8 0 0 1 0-16h24a8 8 0 0 1 0 16z"/></svg>